{"title":"From Time To Time (2009) x264 RB58.mp4","uid":10039390,"size":730256958,"categoryP":"video","categoryS":"movies_dvdr","magnet":"?xt=urn:btih:d02270f69e494e2d02b2cd55fe99d1379376ed5d&amp;dn=From+Time+To+Time+%282009%29+x264+RB58.mp4&amp;tr=udp%3A%2F%2Ftracker.openbittorrent.com%3A80&amp;tr=udp%3A%2F%2Fopen.demonii.com%3A1337&amp;tr=udp%3A%2F%2Ftracker.coppersurfer.tk%3A6969&amp;tr=udp%3A%2F%2Fexodus.desync.com%3A6969","seeders":6,"leechers":1,"uploader":"RedBaron58","files":1,"time":1398445819,"description":"From Time to Time (2009) DVDrip x264 \n  &lt;a href=&quot;\nhttp://www.imdb.com/title/tt1031241/&quot; rel=&quot;nofollow&quot; target=&quot;_NEW&quot;&gt;\nhttp://www.imdb.com/title/tt1031241/&lt;/a&gt;\n\n\nThank you for your kind comments and thumbs ups on my other torrents, your feedback is welcome.\n\n\nAbout the Film:\nA British ghostly haunting story spanning two worlds, two centuries apart. \nIn 1944, towards the end of World War II, 13-year-old Tolly finds he can travel mysteriously between \nthe present and the 1700s and he begins an adventure that unlocks family secrets laid buried for \ngenerations. After a terrible fire, a tale of jewels, press gang and terror begins.\n\n\nI hope you enjoy.\n\n\nTechnical:\n\nGeneral\nComplete name                            : G:From Time To Time (2009) x264 RB58.mp4\nFormat                                   : MPEG-4\nFormat profile                           : Base Media / Version 2\nCodec ID                                 : mp42\nFile size                                : 696 MiB\nDuration                                 : 1h 31mn\nOverall bit rate mode                    : Variable\nOverall bit rate                         : 1 058 Kbps\nEncoded date                             : UTC 2014-04-24 23:49:13\nTagged date                              : UTC 2014-04-25 01:05:52\nWriting application                      : HandBrake 0.9.8 2012071700\n\nVideo\nID                                       : 1\nFormat                                   : AVC\nFormat/Info                              : Advanced Video Codec\nFormat profile                           : &lt;a class=&quot;__cf_email__&quot; href=&quot;/cdn-cgi/l/email-protection&quot; data-cfemail=&quot;4d002c24230d017e637d&quot;&gt;[email&amp;#160;protected]&lt;/a&gt;&lt;script cf-hash='f9e31' type=&quot;text/javascript&quot;&gt;\n/* &lt;![CDATA[ */!function(){try{var t=&quot;currentScript&quot;in document?document.currentScript:function(){for(var t=document.getElementsByTagName(&quot;script&quot;),e=t.length;e--;)if(t[e].getAttribute(&quot;cf-hash&quot;))return t[e]}();if(t&amp;&amp;t.previousSibling){var e,r,n,i,c=t.previousSibling,a=c.getAttribute(&quot;data-cfemail&quot;);if(a){for(e=&quot;&quot;,r=parseInt(a.substr(0,2),16),n=2;a.length-n;n+=2)i=parseInt(a.substr(n,2),16)^r,e+=String.fromCharCode(i);e=document.createTextNode(e),c.parentNode.replaceChild(e,c)}}}catch(u){}}();/* ]]&gt; */&lt;/script&gt;\nFormat settings, CABAC                   : Yes\nFormat settings, ReFrames                : 4 frames\nCodec ID                                 : avc1\nCodec ID/Info                            : Advanced Video Coding\nDuration                                 : 1h 31mn\nBit rate mode                            : Variable\nBit rate                                 : 900 Kbps\nWidth                                    : 716 pixels\nHeight                                   : 556 pixels\nDisplay aspect ratio                     : 1.85:1\nFrame rate mode                          : Constant\nFrame rate                               : 25.000 fps\nColor space                              : YUV\nChroma subsampling                       : 4:2:0\nBit depth                                : 8 bits\nScan type                                : Progressive\nBits/(Pixel*Frame)                       : 0.090\nStream size                              : 592 MiB (85%)\nWriting library                          : x264 core 120\nEncoding settings                        : cabac=1 / ref=1 / deblock=1:0:0 \nEncoded date                             : UTC 2014-04-24 23:49:13\nTagged date                              : UTC 2014-04-25 01:05:52\nColor primaries                          : BT.601 NTSC\nTransfer characteristics                 : BT.709\nMatrix coefficients                      : BT.601\n\nAudio\nID                                       : 2\nFormat                                   : MPEG Audio\nFormat version                           : Version 1\nFormat profile                           : Layer 3\nCodec ID                                 : 69\nDuration                                 : 1h 31mn\nBit rate mode                            : Variable\nBit rate                                 : 154 Kbps\nMaximum bit rate                         : 190 Kbps\nChannel(s)                               : 2 channels\nSampling rate                            : 48.0 KHz\nCompression mode                         : Lossy\nDelay relative to video                  : 80ms\nStream size                              : 102 MiB (15%)\nWriting library                          : LAME3.98\nLanguage                                 : English\nEncoded date                             : UTC 2014-04-24 23:49:13\nTagged date                              : UTC 2014-04-25 01:05:51","torrent":{"xt":"urn:btih:d02270f69e494e2d02b2cd55fe99d1379376ed5d","amp;dn":"From+Time+To+Time+%282009%29+x264+RB58.mp4","amp;tr":["udp%3A%2F%2Ftracker.openbittorrent.com%3A80","udp%3A%2F%2Fopen.demonii.com%3A1337","udp%3A%2F%2Ftracker.coppersurfer.tk%3A6969","udp%3A%2F%2Fexodus.desync.com%3A6969"],"infoHash":"d02270f69e494e2d02b2cd55fe99d1379376ed5d","infoHashBuffer":{"type":"Buffer","data":[208,34,112,246,158,73,78,45,2,178,205,85,254,153,209,55,147,118,237,93]},"announce":[],"urlList":[]}}